<mxfile host="app.diagrams.net" agent="Mozilla/5.0 (Windows NT 10.0; Win64; x64) AppleWebKit/537.36 (KHTML, like Gecko) Chrome/132.0.0.0 Safari/537.36" version="26.0.11">
  <diagram name="Page-1" id="bZNIYqXd42xPBEHuLVvH">
    <mxGraphModel dx="1640" dy="618" grid="1" gridSize="10" guides="1" tooltips="1" connect="1" arrows="1" fold="1" page="0" pageScale="1" pageWidth="850" pageHeight="1100" background="none" math="0" shadow="0">
      <root>
        <mxCell id="0" />
        <mxCell id="1" parent="0" />
        <mxCell id="tkeK4FPXliPMFwMZ4mss-11" style="edgeStyle=none;curved=1;rounded=0;orthogonalLoop=1;jettySize=auto;html=1;fontSize=12;startSize=8;endSize=8;" edge="1" parent="1" source="tkeK4FPXliPMFwMZ4mss-9" target="tkeK4FPXliPMFwMZ4mss-2">
          <mxGeometry relative="1" as="geometry" />
        </mxCell>
        <mxCell id="tkeK4FPXliPMFwMZ4mss-9" value="" style="rounded=0;whiteSpace=wrap;html=1;" vertex="1" parent="1">
          <mxGeometry x="-20" y="320" width="120" height="140" as="geometry" />
        </mxCell>
        <mxCell id="tkeK4FPXliPMFwMZ4mss-8" value="" style="rounded=0;whiteSpace=wrap;html=1;" vertex="1" parent="1">
          <mxGeometry x="-20" y="150" width="120" height="140" as="geometry" />
        </mxCell>
        <mxCell id="tkeK4FPXliPMFwMZ4mss-2" value="" style="verticalLabelPosition=bottom;aspect=fixed;html=1;shape=mxgraph.salesforce.web2;" vertex="1" parent="1">
          <mxGeometry x="250" y="260" width="80" height="80" as="geometry" />
        </mxCell>
        <mxCell id="tkeK4FPXliPMFwMZ4mss-4" value="" style="shadow=0;dashed=0;html=1;strokeColor=none;fillColor=#4495D1;labelPosition=center;verticalLabelPosition=bottom;verticalAlign=top;align=center;outlineConnect=0;shape=mxgraph.veeam.portal_admin;" vertex="1" parent="1">
          <mxGeometry y="190" width="80" height="80" as="geometry" />
        </mxCell>
        <mxCell id="tkeK4FPXliPMFwMZ4mss-5" value="" style="shape=actor;whiteSpace=wrap;html=1;" vertex="1" parent="1">
          <mxGeometry y="360" width="80" height="90" as="geometry" />
        </mxCell>
        <mxCell id="tkeK4FPXliPMFwMZ4mss-6" value="Admin" style="text;html=1;align=center;verticalAlign=middle;whiteSpace=wrap;rounded=0;" vertex="1" parent="1">
          <mxGeometry y="160" width="80" height="30" as="geometry" />
        </mxCell>
        <mxCell id="tkeK4FPXliPMFwMZ4mss-7" value="User" style="text;html=1;align=center;verticalAlign=middle;whiteSpace=wrap;rounded=0;" vertex="1" parent="1">
          <mxGeometry y="330" width="80" height="30" as="geometry" />
        </mxCell>
        <mxCell id="tkeK4FPXliPMFwMZ4mss-10" style="edgeStyle=none;curved=1;rounded=0;orthogonalLoop=1;jettySize=auto;html=1;entryX=0.063;entryY=0.363;entryDx=0;entryDy=0;entryPerimeter=0;fontSize=12;startSize=8;endSize=8;" edge="1" parent="1" source="tkeK4FPXliPMFwMZ4mss-8" target="tkeK4FPXliPMFwMZ4mss-2">
          <mxGeometry relative="1" as="geometry" />
        </mxCell>
        <mxCell id="tkeK4FPXliPMFwMZ4mss-12" value="" style="shape=image;verticalLabelPosition=bottom;labelBackgroundColor=default;verticalAlign=top;aspect=fixed;imageAspect=0;image=https://images.ctfassets.net/23aumh6u8s0i/6pjUKboBuFLvCKkE3esaFA/5f2101d6d2add5c615db5e98a553fc44/nextjs.jpeg;" vertex="1" parent="1">
          <mxGeometry x="400" y="351.12" width="120" height="107.76" as="geometry" />
        </mxCell>
        <mxCell id="tkeK4FPXliPMFwMZ4mss-16" value="" style="endArrow=classic;startArrow=classic;html=1;rounded=0;fontSize=12;startSize=8;endSize=8;curved=1;entryX=0;entryY=0.5;entryDx=0;entryDy=0;" edge="1" parent="1" source="tkeK4FPXliPMFwMZ4mss-2" target="tkeK4FPXliPMFwMZ4mss-12">
          <mxGeometry width="50" height="50" relative="1" as="geometry">
            <mxPoint x="290" y="330" as="sourcePoint" />
            <mxPoint x="340" y="280" as="targetPoint" />
          </mxGeometry>
        </mxCell>
        <mxCell id="tkeK4FPXliPMFwMZ4mss-19" value="" style="endArrow=classic;startArrow=classic;html=1;rounded=0;fontSize=12;startSize=8;endSize=8;curved=1;entryX=0.01;entryY=0.49;entryDx=0;entryDy=0;entryPerimeter=0;" edge="1" parent="1" target="tkeK4FPXliPMFwMZ4mss-28">
          <mxGeometry width="50" height="50" relative="1" as="geometry">
            <mxPoint x="320" y="270" as="sourcePoint" />
            <mxPoint x="399.9999999999998" y="234" as="targetPoint" />
          </mxGeometry>
        </mxCell>
        <mxCell id="tkeK4FPXliPMFwMZ4mss-23" value="" style="image;aspect=fixed;html=1;points=[];align=center;fontSize=12;image=img/lib/azure2/databases/Azure_Database_PostgreSQL_Server.svg;" vertex="1" parent="1">
          <mxGeometry x="640" y="240" width="150" height="200" as="geometry" />
        </mxCell>
        <mxCell id="tkeK4FPXliPMFwMZ4mss-24" value="" style="endArrow=classic;startArrow=classic;html=1;rounded=0;fontSize=12;startSize=8;endSize=8;curved=1;exitX=0.979;exitY=0.458;exitDx=0;exitDy=0;exitPerimeter=0;" edge="1" parent="1" source="tkeK4FPXliPMFwMZ4mss-28" target="tkeK4FPXliPMFwMZ4mss-23">
          <mxGeometry width="50" height="50" relative="1" as="geometry">
            <mxPoint x="520" y="234" as="sourcePoint" />
            <mxPoint x="410" y="415" as="targetPoint" />
          </mxGeometry>
        </mxCell>
        <mxCell id="tkeK4FPXliPMFwMZ4mss-25" value="Lashma" style="text;html=1;align=center;verticalAlign=middle;whiteSpace=wrap;rounded=0;" vertex="1" parent="1">
          <mxGeometry x="250" y="340" width="80" height="30" as="geometry" />
        </mxCell>
        <mxCell id="tkeK4FPXliPMFwMZ4mss-27" value="Database" style="text;html=1;align=center;verticalAlign=middle;whiteSpace=wrap;rounded=0;" vertex="1" parent="1">
          <mxGeometry x="675" y="440" width="80" height="30" as="geometry" />
        </mxCell>
        <mxCell id="tkeK4FPXliPMFwMZ4mss-28" value="" style="image;aspect=fixed;html=1;points=[];align=center;fontSize=12;image=img/lib/azure2/compute/Azure_Spring_Cloud.svg;" vertex="1" parent="1">
          <mxGeometry x="426" y="202" width="68" height="68" as="geometry" />
        </mxCell>
      </root>
    </mxGraphModel>
  </diagram>
</mxfile>
